<?xml version="1.0" encoding="utf-8"?>
<!-- Generator: Adobe Illustrator 26.3.1, SVG Export Plug-In . SVG Version: 6.00 Build 0)  -->
<svg xmlns:xlink="http://www.w3.org/1999/xlink" version="1.1" id="Ebene_1" xmlns="http://www.w3.org/2000/svg" x="0px" y="0px"
	 viewBox="0 0 329.2 78.1" style="enable-background:new 0 0 329.2 78.1;" xml:space="preserve">
<style type="text/css">
	.st0{fill:#2B768B;}
	.st1{fill:#FDC533;}
	.st2{fill:#FFFFFF;}
	.st3{enable-background:new    ;}
	.st4{fill:#1D1D1B;}
</style>
<circle class="st0" cx="39" cy="39" r="39"/>
<polygon class="st1" points="35.7,66 50.4,24.5 58.6,24.5 43.9,66 "/>
<path class="st1" d="M75.2,24.5h-5.5L55.1,66h8.2l13.3-37.7C76.2,27,75.8,25.7,75.2,24.5L75.2,24.5z"/>
<polygon class="st2" points="17.1,24.5 16.4,30.8 28.9,30.8 16.4,66 24.6,66 39.3,24.5 "/>
<g class="st3">
	<path class="st4" d="M89.9,66.4c-1.7,0-3.2-0.3-4.5-1c-1.3-0.7-2.3-1.6-2.9-2.8s-1-2.6-1-4.1c0-1.6,0.3-2.9,1-4.1
		c0.7-1.2,1.7-2.1,2.9-2.7c1.3-0.6,2.8-1,4.5-1c1.3,0,2.4,0.2,3.4,0.6s1.8,0.9,2.5,1.5c0.7,0.6,1.2,1.3,1.5,2
		c0.3,0.7,0.5,1.4,0.5,2.2c0,0,0,0,0,0.1s0,0,0,0.1h-5c0-0.1,0-0.1,0-0.2c0,0,0-0.1,0-0.2c-0.1-0.3-0.2-0.6-0.4-0.9
		c-0.2-0.3-0.5-0.6-0.9-0.8c-0.4-0.2-0.9-0.3-1.5-0.3c-0.7,0-1.2,0.1-1.7,0.4c-0.5,0.3-0.9,0.7-1.2,1.3c-0.3,0.6-0.4,1.3-0.4,2.1
		c0,0.8,0.1,1.5,0.4,2.1c0.3,0.6,0.7,1.1,1.2,1.4c0.5,0.3,1.1,0.5,1.7,0.5s1.2-0.1,1.6-0.3c0.4-0.2,0.7-0.5,0.9-0.8
		c0.2-0.3,0.3-0.7,0.4-1.2h5c0,0.7-0.2,1.4-0.5,2.2c-0.3,0.7-0.8,1.4-1.5,2c-0.7,0.6-1.5,1.1-2.5,1.5S91.2,66.4,89.9,66.4z"/>
</g>
<g class="st3">
	<path class="st4" d="M108.5,66.3c-1.7,0-3.1-0.3-4.4-1c-1.3-0.7-2.3-1.6-3-2.8c-0.7-1.2-1.1-2.5-1.1-4.1c0-1.6,0.4-2.9,1.1-4.1
		c0.7-1.2,1.7-2.1,3-2.8s2.7-1,4.4-1c1.7,0,3.1,0.3,4.4,1s2.3,1.6,3,2.8c0.7,1.2,1.1,2.5,1.1,4.1c0,1.5-0.4,2.9-1.1,4.1
		c-0.7,1.2-1.7,2.1-3,2.8C111.6,66,110.1,66.3,108.5,66.3z M108.5,62.4c0.7,0,1.3-0.2,1.8-0.5s0.9-0.8,1.1-1.4
		c0.3-0.6,0.4-1.3,0.4-2.1c0-0.8-0.1-1.5-0.4-2.1c-0.3-0.6-0.6-1-1.1-1.4s-1.1-0.5-1.8-0.5c-0.7,0-1.3,0.2-1.8,0.5s-0.9,0.8-1.1,1.4
		c-0.3,0.6-0.4,1.3-0.4,2.1c0,0.8,0.1,1.5,0.4,2.1s0.6,1.1,1.1,1.4S107.8,62.4,108.5,62.4z"/>
</g>
<g class="st3">
	<path class="st4" d="M126.2,66.4c-1.3,0-2.4-0.3-3.5-0.9c-1.1-0.6-1.9-1.5-2.6-2.7c-0.7-1.2-1-2.7-1-4.4c0-1.7,0.3-3.1,1-4.2
		s1.5-2,2.6-2.6s2.2-0.9,3.4-0.9c1.2,0,2.3,0.3,3.3,0.9s1.8,1.5,2.4,2.5c0.6,1.1,0.9,2.3,0.9,3.7c0,0,0,0.1,0,0.1c0,0,0,0.1,0,0.2
		l-2,0c0,0,0-0.1,0-0.1s0-0.1,0-0.1c0-0.7-0.2-1.2-0.5-1.7c-0.3-0.5-0.7-0.8-1.2-1.1c-0.5-0.2-1-0.4-1.5-0.4c-0.8,0-1.6,0.3-2.2,0.8
		c-0.7,0.6-1,1.5-1,2.7c0,1.3,0.3,2.2,1,2.8c0.7,0.6,1.4,0.9,2.2,0.9c0.5,0,1.1-0.1,1.5-0.4s0.9-0.6,1.2-1.1c0.3-0.5,0.5-1,0.5-1.7
		l2,0.1c0,1.4-0.3,2.6-0.9,3.7s-1.4,2-2.4,2.7C128.5,66,127.4,66.4,126.2,66.4z M130.7,66V43.8h5.1V66H130.7z"/>
</g>
<g class="st3">
	<path class="st4" d="M141.4,59.9v-3.2h9.4l-0.4,0.7c0-0.1,0-0.2,0-0.2c0-0.1,0-0.2,0-0.2c0-0.4-0.1-0.8-0.3-1.3
		c-0.2-0.4-0.6-0.8-1-1.1c-0.5-0.3-1.1-0.4-1.9-0.4c-0.8,0-1.4,0.2-1.9,0.5c-0.5,0.3-0.9,0.8-1.2,1.4c-0.3,0.6-0.4,1.3-0.4,2.2
		c0,0.9,0.1,1.7,0.4,2.3c0.3,0.6,0.7,1.1,1.2,1.5c0.5,0.3,1.2,0.5,2.1,0.5c0.5,0,1,0,1.3-0.1c0.4-0.1,0.7-0.2,0.9-0.3
		c0.2-0.1,0.4-0.3,0.5-0.5c0.1-0.2,0.2-0.3,0.2-0.5h5c-0.1,0.7-0.3,1.3-0.7,1.9c-0.4,0.6-0.9,1.2-1.6,1.6c-0.7,0.5-1.5,0.9-2.5,1.2
		s-2.1,0.4-3.4,0.4c-1.7,0-3.2-0.3-4.5-1c-1.3-0.7-2.3-1.6-2.9-2.8c-0.7-1.2-1-2.5-1-4.1c0-1.6,0.4-2.9,1.1-4.1
		c0.7-1.2,1.7-2.1,3-2.8c1.3-0.7,2.7-1,4.4-1c1.7,0,3.2,0.3,4.5,1c1.3,0.7,2.2,1.6,2.9,2.8c0.7,1.2,1,2.6,1,4.3c0,0.3,0,0.5,0,0.7
		c0,0.2,0,0.4,0,0.5H141.4z"/>
</g>
<g class="st3">
	<path class="st4" d="M165,66.3c-0.9,0-1.7-0.1-2.5-0.3c-0.7-0.2-1.4-0.5-1.9-0.8c-0.5-0.4-1-0.8-1.3-1.3s-0.5-1.1-0.5-1.8
		c0-0.1,0-0.2,0-0.3c0-0.1,0-0.2,0-0.2h1.8c0,0.1,0,0.1,0,0.2s0,0.1,0,0.2c0,0.9,0.4,1.5,1.2,2c0.8,0.5,1.8,0.7,3.2,0.7
		c0.9,0,1.6-0.1,2.3-0.3s1.2-0.5,1.6-0.9c0.4-0.4,0.6-0.9,0.6-1.4c0-0.9-0.4-1.6-1.2-2c-0.8-0.4-2-0.7-3.5-1
		c-0.8-0.1-1.5-0.3-2.2-0.5c-0.7-0.2-1.3-0.5-1.8-0.8c-0.5-0.3-0.9-0.7-1.2-1.2c-0.3-0.5-0.4-1.1-0.4-1.8c0-0.9,0.3-1.6,0.8-2.2
		c0.5-0.6,1.2-1.1,2.1-1.4c0.9-0.3,1.9-0.5,3-0.5c1.1,0,2.1,0.2,2.9,0.5c0.9,0.3,1.6,0.8,2.2,1.5c0.5,0.6,0.8,1.5,0.8,2.4
		c0,0,0,0.1,0,0.1s0,0.1,0,0.2h-1.8c0,0,0-0.1,0-0.1c0,0,0-0.1,0-0.1c0-0.7-0.2-1.2-0.6-1.7s-0.9-0.7-1.5-0.9s-1.3-0.3-2-0.3
		c-0.7,0-1.4,0.1-2,0.3c-0.6,0.2-1.2,0.4-1.6,0.8c-0.4,0.4-0.6,0.8-0.6,1.4s0.2,1.1,0.6,1.4c0.4,0.4,0.9,0.7,1.6,0.9
		s1.5,0.4,2.4,0.6c0.8,0.2,1.6,0.3,2.3,0.5c0.7,0.2,1.3,0.5,1.8,0.8c0.5,0.3,0.9,0.7,1.2,1.2c0.3,0.5,0.4,1.1,0.4,1.8
		c0,0.7-0.2,1.3-0.5,1.8s-0.8,1-1.3,1.3s-1.2,0.6-2,0.8S165.9,66.3,165,66.3z"/>
	<path class="st4" d="M175.1,59.2v-1.6h12.2l-0.3,0.5c0-0.1,0-0.1,0-0.1c0,0,0-0.1,0-0.1c0-1-0.2-1.9-0.6-2.7s-1-1.5-1.8-2
		c-0.8-0.5-1.8-0.8-2.9-0.8c-1.2,0-2.2,0.3-3.1,0.8c-0.9,0.5-1.6,1.3-2.1,2.2c-0.5,0.9-0.7,2-0.7,3.2c0,1.2,0.2,2.3,0.7,3.2
		c0.5,0.9,1.2,1.7,2.1,2.2c0.9,0.5,1.9,0.8,3.1,0.8c0.9,0,1.6-0.1,2.3-0.3c0.6-0.2,1.2-0.5,1.6-0.8c0.4-0.4,0.7-0.7,1-1.1
		c0.2-0.4,0.4-0.8,0.4-1.1h1.7c0,0.6-0.2,1.1-0.5,1.7s-0.8,1.1-1.3,1.6c-0.6,0.5-1.3,0.9-2.2,1.2c-0.9,0.3-1.8,0.5-3,0.5
		c-1.5,0-2.8-0.3-3.9-1s-2-1.6-2.7-2.7c-0.6-1.2-1-2.5-1-4c0-1.5,0.3-2.9,1-4.1s1.5-2.1,2.7-2.7c1.1-0.7,2.4-1,3.9-1
		c1.5,0,2.8,0.3,3.8,1c1.1,0.7,1.9,1.6,2.5,2.7c0.6,1.2,0.9,2.4,0.9,3.9c0,0.1,0,0.3,0,0.5s0,0.3,0,0.4H175.1z"/>
	<path class="st4" d="M203.3,50.9L198.1,66h-2.2l-5.3-15.1h1.8l4.8,14h-0.3l4.7-14H203.3z"/>
	<path class="st4" d="M205.7,59.2v-1.6h12.2l-0.3,0.5c0-0.1,0-0.1,0-0.1c0,0,0-0.1,0-0.1c0-1-0.2-1.9-0.6-2.7c-0.4-0.8-1-1.5-1.8-2
		c-0.8-0.5-1.8-0.8-2.9-0.8c-1.2,0-2.2,0.3-3.1,0.8c-0.9,0.5-1.6,1.3-2.1,2.2s-0.7,2-0.7,3.2c0,1.2,0.2,2.3,0.7,3.2
		c0.5,0.9,1.2,1.7,2.1,2.2c0.9,0.5,1.9,0.8,3.1,0.8c0.9,0,1.6-0.1,2.3-0.3c0.6-0.2,1.2-0.5,1.6-0.8c0.4-0.4,0.7-0.7,1-1.1
		c0.2-0.4,0.4-0.8,0.4-1.1h1.7c0,0.6-0.2,1.1-0.5,1.7s-0.8,1.1-1.3,1.6c-0.6,0.5-1.3,0.9-2.2,1.2s-1.8,0.5-3,0.5
		c-1.5,0-2.8-0.3-3.9-1s-2-1.6-2.7-2.7c-0.6-1.2-1-2.5-1-4c0-1.5,0.3-2.9,1-4.1c0.7-1.2,1.5-2.1,2.7-2.7c1.1-0.7,2.4-1,3.9-1
		c1.5,0,2.8,0.3,3.8,1c1.1,0.7,1.9,1.6,2.5,2.7s0.9,2.4,0.9,3.9c0,0.1,0,0.3,0,0.5s0,0.3,0,0.4H205.7z"/>
	<path class="st4" d="M223,66V50.9h1.8V66H223z M233.9,66v-7.5c0-0.5,0-0.8,0-1.1c0-0.3,0-0.5,0-0.8c0-0.8-0.1-1.6-0.4-2.2
		c-0.3-0.6-0.8-1.1-1.4-1.5c-0.6-0.4-1.4-0.5-2.4-0.5c-0.9,0-1.7,0.2-2.4,0.6c-0.7,0.4-1.4,1-1.8,1.7s-0.7,1.5-0.7,2.4l-1.1-0.4
		c0-1.1,0.3-2.2,0.9-3.1s1.4-1.6,2.3-2.2c1-0.5,2-0.8,3.1-0.8c1.1,0,2.1,0.2,3,0.6s1.5,1.1,2,1.9c0.5,0.8,0.7,1.8,0.7,2.9
		c0,0.4,0,0.8,0,1.3c0,0.5,0,0.9,0,1.2V66H233.9z"/>
	<path class="st4" d="M240.1,59.2v-1.6h12.2l-0.3,0.5c0-0.1,0-0.1,0-0.1c0,0,0-0.1,0-0.1c0-1-0.2-1.9-0.6-2.7c-0.4-0.8-1-1.5-1.8-2
		c-0.8-0.5-1.8-0.8-2.9-0.8c-1.2,0-2.2,0.3-3.1,0.8c-0.9,0.5-1.6,1.3-2.1,2.2s-0.7,2-0.7,3.2c0,1.2,0.2,2.3,0.7,3.2
		c0.5,0.9,1.2,1.7,2.1,2.2c0.9,0.5,1.9,0.8,3.1,0.8c0.9,0,1.6-0.1,2.3-0.3c0.6-0.2,1.2-0.5,1.6-0.8c0.4-0.4,0.7-0.7,1-1.1
		c0.2-0.4,0.4-0.8,0.4-1.1h1.7c0,0.6-0.2,1.1-0.5,1.7s-0.8,1.1-1.3,1.6c-0.6,0.5-1.3,0.9-2.2,1.2s-1.8,0.5-3,0.5
		c-1.5,0-2.8-0.3-3.9-1s-2-1.6-2.7-2.7c-0.6-1.2-1-2.5-1-4c0-1.5,0.3-2.9,1-4.1c0.7-1.2,1.5-2.1,2.7-2.7c1.1-0.7,2.4-1,3.9-1
		c1.5,0,2.8,0.3,3.8,1c1.1,0.7,1.9,1.6,2.5,2.7s0.9,2.4,0.9,3.9c0,0.1,0,0.3,0,0.5s0,0.3,0,0.4H240.1z"/>
	<path class="st4" d="M259.4,43.8V66h-1.7V43.8H259.4z"/>
	<path class="st4" d="M264.1,59.2v-1.6h12.2l-0.3,0.5c0-0.1,0-0.1,0-0.1c0,0,0-0.1,0-0.1c0-1-0.2-1.9-0.6-2.7s-1-1.5-1.8-2
		c-0.8-0.5-1.8-0.8-2.9-0.8c-1.2,0-2.2,0.3-3.1,0.8c-0.9,0.5-1.6,1.3-2.1,2.2c-0.5,0.9-0.7,2-0.7,3.2c0,1.2,0.2,2.3,0.7,3.2
		c0.5,0.9,1.2,1.7,2.1,2.2c0.9,0.5,1.9,0.8,3.1,0.8c0.9,0,1.6-0.1,2.3-0.3c0.6-0.2,1.2-0.5,1.6-0.8c0.4-0.4,0.7-0.7,1-1.1
		c0.2-0.4,0.4-0.8,0.4-1.1h1.7c0,0.6-0.2,1.1-0.5,1.7s-0.8,1.1-1.3,1.6c-0.6,0.5-1.3,0.9-2.2,1.2c-0.9,0.3-1.8,0.5-3,0.5
		c-1.5,0-2.8-0.3-3.9-1s-2-1.6-2.7-2.7c-0.6-1.2-1-2.5-1-4c0-1.5,0.3-2.9,1-4.1s1.5-2.1,2.7-2.7c1.1-0.7,2.4-1,3.9-1
		c1.5,0,2.8,0.3,3.8,1c1.1,0.7,1.9,1.6,2.5,2.7c0.6,1.2,0.9,2.4,0.9,3.9c0,0.1,0,0.3,0,0.5s0,0.3,0,0.4H264.1z"/>
	<path class="st4" d="M292.2,50.9L287,66h-2.2l-5.3-15.1h1.8l4.8,14h-0.3l4.7-14H292.2z"/>
	<path class="st4" d="M294.6,59.2v-1.6h12.2l-0.3,0.5c0-0.1,0-0.1,0-0.1c0,0,0-0.1,0-0.1c0-1-0.2-1.9-0.6-2.7c-0.4-0.8-1-1.5-1.8-2
		c-0.8-0.5-1.8-0.8-2.9-0.8c-1.2,0-2.2,0.3-3.1,0.8c-0.9,0.5-1.6,1.3-2.1,2.2s-0.7,2-0.7,3.2c0,1.2,0.2,2.3,0.7,3.2
		c0.5,0.9,1.2,1.7,2.1,2.2c0.9,0.5,1.9,0.8,3.1,0.8c0.9,0,1.6-0.1,2.3-0.3c0.6-0.2,1.2-0.5,1.6-0.8c0.4-0.4,0.7-0.7,1-1.1
		c0.2-0.4,0.4-0.8,0.4-1.1h1.7c0,0.6-0.2,1.1-0.5,1.7s-0.8,1.1-1.3,1.6c-0.6,0.5-1.3,0.9-2.2,1.2s-1.8,0.5-3,0.5
		c-1.5,0-2.8-0.3-3.9-1s-2-1.6-2.7-2.7c-0.6-1.2-1-2.5-1-4c0-1.5,0.3-2.9,1-4.1c0.7-1.2,1.5-2.1,2.7-2.7c1.1-0.7,2.4-1,3.9-1
		c1.5,0,2.8,0.3,3.8,1c1.1,0.7,1.9,1.6,2.5,2.7s0.9,2.4,0.9,3.9c0,0.1,0,0.3,0,0.5s0,0.3,0,0.4H294.6z"/>
	<path class="st4" d="M312,66V50.9h1.8V66H312z M322.8,66v-7.5c0-0.5,0-0.8,0-1.1c0-0.3,0-0.5,0-0.8c0-0.8-0.1-1.6-0.4-2.2
		c-0.3-0.6-0.8-1.1-1.4-1.5c-0.6-0.4-1.4-0.5-2.4-0.5c-0.9,0-1.7,0.2-2.4,0.6c-0.7,0.4-1.4,1-1.8,1.7s-0.7,1.5-0.7,2.4l-1.1-0.4
		c0-1.1,0.3-2.2,0.9-3.1s1.4-1.6,2.3-2.2c1-0.5,2-0.8,3.1-0.8c1.1,0,2.1,0.2,3,0.6s1.5,1.1,2,1.9c0.5,0.8,0.7,1.8,0.7,2.9
		c0,0.4,0,0.8,0,1.3c0,0.5,0,0.9,0,1.2V66H322.8z"/>
</g>
</svg>
